<svg width="150" height="150" viewBox="0 0 150 150" fill="none" xmlns="http://www.w3.org/2000/svg">
<g filter="url(#filter0_i_5_31)">
<rect width="150" height="150" rx="14" fill="white"/>
<g clip-path="url(#clip0_5_31)">
<g filter="url(#filter1_d_5_31)">
<path fill-rule="evenodd" clip-rule="evenodd" d="M119.2 3.38408C115.253 7.45011 113.61 13.3178 115.435 16.831C117.025 19.889 120.378 19.0018 120.693 15.4388C121.184 9.90847 121.874 8.4254 124.643 6.94982C129.811 4.19635 134.006 7.72649 134.731 15.4388C134.946 17.7398 135.407 18.2495 137.268 18.2495C139.396 18.2495 139.559 17.9066 139.814 12.899C140.066 7.93916 139.858 7.29272 136.99 4.068C134.19 0.921036 133.36 0.54816 128.308 0.171537C122.822 -0.23694 122.658 -0.178853 119.2 3.38408ZM0.340964 26.5951C0.0226685 27.9011 -0.0937366 34.3759 0.0817807 40.9846C0.337327 50.5988 0.729288 53.5143 2.04158 55.5783C5.8302 61.5312 13.9758 63.5623 19.6815 59.9778C24.8125 56.7559 25.4891 54.1392 25.2071 38.6246L24.9552 24.8076H22.6817H20.4081L19.9534 38.0634C19.5651 49.3743 19.2441 51.6087 17.7663 53.2876C15.4082 55.9671 10.8402 55.8846 8.31655 53.1171C6.54409 51.174 6.34311 49.7837 6.11212 37.8929L5.85749 24.8076L3.38842 24.5143C1.39134 24.2773 0.808404 24.6755 0.340964 26.5951ZM34.776 26.1192C29.7333 29.3833 29.0476 31.9672 29.0476 47.7142V61.8141H31.7759H34.5041L34.5177 49.4005C34.5323 35.8365 35.248 33.0849 39.2785 31.0931C41.3375 30.0766 42.1632 30.1168 44.4686 31.3451C47.3705 32.8909 47.9744 34.4208 48.36 41.2029C48.5673 44.8483 48.8938 45.4619 50.7708 45.7345C53.5764 46.144 54.4803 44.5588 54.4976 39.1989C54.5149 33.6713 56.7457 30.5853 60.7235 30.5853C62.2959 30.5853 64.4057 31.3526 65.4124 32.2913C67.0903 33.8559 67.2431 35.1582 67.2431 47.9062V61.8141H70.4261H73.609V48.1367C73.609 32.7504 72.6623 29.179 67.7706 26.1061C63.9756 23.7217 57.8225 23.8154 53.8929 26.3169C50.9063 28.2187 50.7163 28.2309 48.9966 26.627C46.2392 24.0562 38.3955 23.7761 34.776 26.1192ZM77.4631 25.4278C76.6483 26.2672 76.3373 31.4481 76.3373 44.2009V61.8141H79.5202H82.7032V55.6823C82.7032 50.4198 83.0197 49.2235 84.9358 47.2504C87.4112 44.6993 88.8281 44.451 92.1093 45.9903C95.0876 47.3881 96.3444 50.5688 96.3444 56.7053C96.3444 61.757 96.3744 61.8141 99.0727 61.8141H101.801V54.3519C101.801 47.3628 101.624 46.6817 99.0163 43.6228C97.4857 41.8259 95.4132 40.088 94.4128 39.761C92.7768 39.2261 93.0632 38.6536 97.2584 34.0836C100.532 30.5178 101.838 28.378 101.635 26.9137C101.042 22.634 98.1669 23.9082 90.3559 31.9128L82.7859 39.672L82.5167 32.2398C82.2776 25.6161 82.0493 24.7785 80.4187 24.5378C79.4129 24.3888 78.0824 24.7898 77.4631 25.4278ZM111.167 26.1192C106.124 29.3833 105.439 31.9672 105.439 47.7142V61.8141H108.1H110.76L111.055 48.2529C111.327 35.7559 111.506 34.5305 113.345 32.638C115.755 30.159 120.348 29.9295 122.534 32.1789C123.524 33.1992 124.245 35.8702 124.536 39.5961C124.947 44.8614 125.199 45.4488 127.162 45.7345C129.967 46.144 130.871 44.5588 130.889 39.1989C130.906 33.6713 133.137 30.5853 137.114 30.5853C138.687 30.5853 140.797 31.3526 141.803 32.2913C143.481 33.8559 143.634 35.1582 143.634 47.9062V61.8141H146.817H150V48.1995C150 32.6867 149.11 29.2137 144.371 26.2373C140.363 23.7199 134.309 23.7545 130.284 26.3169C127.297 28.2187 127.107 28.2309 125.388 26.627C122.63 24.0562 114.786 23.7761 111.167 26.1192ZM0.915719 70.1307C-0.42567 72.7128 1.3677 86.9636 4.0814 95.2942C8.31837 108.297 13.7694 117.171 23.2592 126.516C38.6083 141.63 54.0684 147.987 75.5097 148C88.5134 148.008 97.1502 145.95 108.622 140.111C123.582 132.497 135.2 120.515 142.299 105.379C147.29 94.7359 149.24 86.9017 149.411 76.8041C149.543 68.9353 149.519 68.8407 147.313 68.8407C144.758 68.8407 143.87 71.0301 143.725 77.681C143.576 84.5211 141.011 93.6013 136.564 103.037C132.968 110.666 131.129 113.219 123.679 120.92C116.236 128.612 113.746 130.53 106.348 134.269C94.1436 140.438 88.1242 141.89 74.9731 141.839C62.1913 141.789 55.6944 140.276 44.9624 134.85C23.0436 123.769 8.5721 101.742 6.56319 76.405C6.27491 72.7596 5.5883 69.4674 5.0381 69.0889C3.34295 67.9216 1.8697 68.2935 0.915719 70.1307Z" fill="#50B56C"/>
</g>
<g filter="url(#filter2_d_5_31)">
<path d="M51.7188 82.7559C51.1165 82.9512 50.4655 83.0488 49.7656 83.0488C47.3242 83.0488 46.1035 81.8363 46.1035 79.4111C46.1035 77.1162 47.3242 75.9688 49.7656 75.9688C50.4655 75.9688 51.1165 76.0664 51.7188 76.2617V77.043C51.1165 76.8151 50.498 76.7012 49.8633 76.7012C47.959 76.7012 47.0068 77.6045 47.0068 79.4111C47.0068 81.348 47.959 82.3164 49.8633 82.3164C50.498 82.3164 51.1165 82.2025 51.7188 81.9746V82.7559ZM53.1152 83V77.873H53.7256L53.8867 78.5273C54.3359 78.0911 54.8763 77.873 55.5078 77.873V78.625C54.8958 78.625 54.3994 78.8415 54.0186 79.2744V83H53.1152ZM57.0752 80.417C57.0752 81.6507 57.5879 82.2676 58.6133 82.2676C59.6387 82.2676 60.1514 81.6507 60.1514 80.417C60.1514 79.2093 59.6387 78.6055 58.6133 78.6055C57.5879 78.6055 57.0752 79.2093 57.0752 80.417ZM56.1719 80.4365C56.1719 78.7275 56.9857 77.873 58.6133 77.873C60.2409 77.873 61.0547 78.7275 61.0547 80.4365C61.0547 82.1423 60.2409 82.9951 58.6133 82.9951C56.9922 82.9951 56.1784 82.1423 56.1719 80.4365ZM61.7139 77.873H62.627L63.5352 81.8916L64.8682 77.873H65.6836L67.1094 81.8916L67.9297 77.873H68.8867L67.5488 83H66.7236L65.2539 79.167L63.8574 83H63.0127L61.7139 77.873ZM69.7949 83V77.624C69.7949 76.3838 70.498 75.7637 71.9043 75.7637C72.2917 75.7637 72.6562 75.8288 72.998 75.959V76.6914C72.6758 76.5612 72.3096 76.4961 71.8994 76.4961C71.0986 76.4961 70.6982 76.859 70.6982 77.585V77.873H72.2852V78.6055H70.6982V83H69.7949ZM77.6904 77.873V83H77.0703L76.9141 82.3457C76.2923 82.7819 75.6673 83 75.0391 83C73.8607 83 73.2715 82.3636 73.2715 81.0908V77.873H74.1748V81.1055C74.1748 81.8672 74.5524 82.248 75.3076 82.248C75.8252 82.248 76.3184 82.0316 76.7871 81.5986V77.873H77.6904ZM79.1602 83V77.873H79.7705L79.9316 78.5273C80.4557 78.0911 81.0319 77.873 81.6602 77.873C82.9395 77.873 83.5791 78.5094 83.5791 79.7822V83H82.6758V79.7676C82.6758 79.0059 82.2965 78.625 81.5381 78.625C81.0205 78.625 80.529 78.8415 80.0635 79.2744V83H79.1602ZM88.4912 78.918C88.1266 78.7422 87.71 78.6543 87.2412 78.6543C86.2093 78.6543 85.6934 79.2028 85.6934 80.2998C85.6934 81.5986 86.2093 82.248 87.2412 82.248C87.71 82.248 88.1266 82.1846 88.4912 82.0576V78.918ZM89.3945 82.6924C88.7728 82.8975 88.0062 83 87.0947 83C85.568 83 84.8047 82.1113 84.8047 80.334C84.8047 78.6934 85.6152 77.873 87.2363 77.873C87.679 77.873 88.0973 77.9544 88.4912 78.1172V76.0176H89.3945V82.6924ZM91.8604 77.873V83H90.957V77.873H91.8604ZM91.8604 76.0176V76.8721H90.957V76.0176H91.8604ZM93.4277 83V77.873H94.0381L94.1992 78.5273C94.7233 78.0911 95.2995 77.873 95.9277 77.873C97.207 77.873 97.8467 78.5094 97.8467 79.7822V83H96.9434V79.7676C96.9434 79.0059 96.5641 78.625 95.8057 78.625C95.2881 78.625 94.7965 78.8415 94.3311 79.2744V83H93.4277ZM102.744 78.7422C102.435 78.6641 102.052 78.625 101.597 78.625C100.506 78.625 99.9609 79.2158 99.9609 80.3975C99.9609 81.6117 100.477 82.2188 101.509 82.2188C101.978 82.2188 102.389 82.1309 102.744 81.9551V78.7422ZM103.647 83C103.647 84.237 102.861 84.8555 101.289 84.8555C100.658 84.8555 100.098 84.7741 99.6094 84.6113V83.8789C100.107 84.0417 100.671 84.123 101.299 84.123C102.262 84.123 102.744 83.7487 102.744 83V82.7559C102.36 82.9186 101.947 83 101.504 83C99.8828 83 99.0723 82.1357 99.0723 80.4072C99.0723 78.7178 99.9268 77.873 101.636 77.873C102.329 77.873 103 77.943 103.647 78.083V83Z" fill="#50B56C"/>
</g>
</g>
<rect x="0.5" y="0.5" width="149" height="149" rx="13.5" stroke="#50FB26"/>
</g>
<defs>
<filter id="filter0_i_5_31" x="0" y="0" width="150" height="154" filterUnits="userSpaceOnUse" color-interpolation-filters="sRGB">
<feFlood flood-opacity="0" result="BackgroundImageFix"/>
<feBlend mode="normal" in="SourceGraphic" in2="BackgroundImageFix" result="shape"/>
<feColorMatrix in="SourceAlpha" type="matrix" values="0 0 0 0 0 0 0 0 0 0 0 0 0 0 0 0 0 0 127 0" result="hardAlpha"/>
<feOffset dy="4"/>
<feGaussianBlur stdDeviation="2"/>
<feComposite in2="hardAlpha" operator="arithmetic" k2="-1" k3="1"/>
<feColorMatrix type="matrix" values="0 0 0 0 0 0 0 0 0 0 0 0 0 0 0 0 0 0 0.25 0"/>
<feBlend mode="normal" in2="shape" result="effect1_innerShadow_5_31"/>
</filter>
<filter id="filter1_d_5_31" x="-4" y="0" width="158" height="156" filterUnits="userSpaceOnUse" color-interpolation-filters="sRGB">
<feFlood flood-opacity="0" result="BackgroundImageFix"/>
<feColorMatrix in="SourceAlpha" type="matrix" values="0 0 0 0 0 0 0 0 0 0 0 0 0 0 0 0 0 0 127 0" result="hardAlpha"/>
<feOffset dy="4"/>
<feGaussianBlur stdDeviation="2"/>
<feComposite in2="hardAlpha" operator="out"/>
<feColorMatrix type="matrix" values="0 0 0 0 0 0 0 0 0 0 0 0 0 0 0 0 0 0 0.25 0"/>
<feBlend mode="normal" in2="BackgroundImageFix" result="effect1_dropShadow_5_31"/>
<feBlend mode="normal" in="SourceGraphic" in2="effect1_dropShadow_5_31" result="shape"/>
</filter>
<filter id="filter2_d_5_31" x="42.1035" y="75.7637" width="65.5439" height="17.0918" filterUnits="userSpaceOnUse" color-interpolation-filters="sRGB">
<feFlood flood-opacity="0" result="BackgroundImageFix"/>
<feColorMatrix in="SourceAlpha" type="matrix" values="0 0 0 0 0 0 0 0 0 0 0 0 0 0 0 0 0 0 127 0" result="hardAlpha"/>
<feOffset dy="4"/>
<feGaussianBlur stdDeviation="2"/>
<feComposite in2="hardAlpha" operator="out"/>
<feColorMatrix type="matrix" values="0 0 0 0 0 0 0 0 0 0 0 0 0 0 0 0 0 0 0.25 0"/>
<feBlend mode="normal" in2="BackgroundImageFix" result="effect1_dropShadow_5_31"/>
<feBlend mode="normal" in="SourceGraphic" in2="effect1_dropShadow_5_31" result="shape"/>
</filter>
<clipPath id="clip0_5_31">
<rect width="150" height="150" fill="white"/>
</clipPath>
</defs>
</svg>
